<?xml version="1.0" encoding="UTF-8"?>
<svg version="1.1" xmlns="http://www.w3.org/2000/svg" width="32" height="32">
<path d="M0 0 C10.56 0 21.12 0 32 0 C32 10.56 32 21.12 32 32 C21.44 32 10.88 32 0 32 C0 21.44 0 10.88 0 0 Z " fill="#FDFDFD" transform="translate(0,0)"/>
<path d="M0 0 C10.56 0 21.12 0 32 0 C32 10.56 32 21.12 32 32 C21.44 32 10.88 32 0 32 C0 21.44 0 10.88 0 0 Z M2 2 C2 11.24 2 20.48 2 30 C11.24 30 20.48 30 30 30 C30 20.76 30 11.52 30 2 C20.76 2 11.52 2 2 2 Z " fill="#000000" transform="translate(0,0)"/>
<path d="M0 0 C2.64 0 5.28 0 8 0 C8.33 4.29 8.66 8.58 9 13 C10.32 13 11.64 13 13 13 C13.33 8.71 13.66 4.42 14 0 C15.32 0 16.64 0 18 0 C18.10823773 2.24893954 18.18569645 4.49937575 18.25 6.75 C18.29640625 8.00296875 18.3428125 9.2559375 18.390625 10.546875 C18 14 18 14 16.171875 16.421875 C14 18 14 18 11 18.5 C8 18 8 18 5.625 16.625 C3.13036958 12.5952124 3.68264112 8.61933486 4 4 C2.68 4 1.36 4 0 4 C0 2.68 0 1.36 0 0 Z " fill="#020202" transform="translate(6,8)"/>
</svg>
